<svg xmlns="http://www.w3.org/2000/svg"  viewBox="0 0 100 100" width="100px" height="100px"><path d="M31.5,95C24.607,95,19,89.393,19,82.5V36.975c-1.803-1.157-3-3.179-3-5.475v-6c0-3.036,2.153-5.707,5.119-6.352 l17.975-3.908C39.703,11.149,43.241,8,47.5,8h9c4.259,0,7.797,3.149,8.407,7.241l17.974,3.908C85.847,19.793,88,22.464,88,25.5v6 c0,2.296-1.197,4.318-3,5.475V82.5C85,89.393,79.393,95,72.5,95H31.5z" opacity=".35"/><path fill="#f2f2f2" d="M29.5,93C22.607,93,17,87.393,17,80.5V34.975c-1.803-1.157-3-3.179-3-5.475v-6 c0-3.036,2.153-5.707,5.119-6.352l17.975-3.908C37.703,9.149,41.241,6,45.5,6h9c4.259,0,7.797,3.149,8.407,7.241l17.974,3.908 C83.847,17.793,86,20.464,86,23.5v6c0,2.296-1.197,4.318-3,5.475V80.5C83,87.393,77.393,93,70.5,93H29.5z"/><path fill="#9aa2e6" d="M21,24l23-5h13l23,5v5H21V24z"/><path fill="#707cc0" d="M69.915,87h-38.83C27.172,87,24,83.828,24,79.915V28h53v51.915C77,83.828,73.828,87,69.915,87z"/><path fill="#40396e" d="M58,20H42v-5.5c0-1.93,1.57-3.5,3.5-3.5h9c1.93,0,3.5,1.57,3.5,3.5V20z M45,17h10v-2.5 c0-0.276-0.224-0.5-0.5-0.5h-9c-0.276,0-0.5,0.224-0.5,0.5V17z"/><path fill="#40396e" d="M70.5,88h-41c-4.136,0-7.5-3.364-7.5-7.5V31h-1.5c-0.829,0-1.5-0.671-1.5-1.5v-6 c0-0.706,0.492-1.316,1.181-1.466l23-5C43.286,17.012,43.393,17,43.5,17h13c0.107,0,0.214,0.012,0.319,0.034l23,5 C80.508,22.184,81,22.794,81,23.5v6c0,0.829-0.671,1.5-1.5,1.5H78v49.5C78,84.636,74.636,88,70.5,88z M22,28h1.5 c0.829,0,1.5,0.671,1.5,1.5v51c0,2.481,2.019,4.5,4.5,4.5h41c2.481,0,4.5-2.019,4.5-4.5v-51c0-0.829,0.671-1.5,1.5-1.5H78v-3.291 L56.339,20H43.661L22,24.709V28z"/><path fill="#9aa2e6" d="M32,77L32,77c-1.657,0-3-1.343-3-3V36c0-1.657,1.343-3,3-3h0c1.657,0,3,1.343,3,3v38 C35,75.657,33.657,77,32,77z"/><path fill="#9aa2e6" d="M44,77L44,77c-1.657,0-3-1.343-3-3V36c0-1.657,1.343-3,3-3h0c1.657,0,3,1.343,3,3v38 C47,75.657,45.657,77,44,77z"/><path fill="#9aa2e6" d="M56,77L56,77c-1.657,0-3-1.343-3-3V36c0-1.657,1.343-3,3-3h0c1.657,0,3,1.343,3,3v38 C59,75.657,57.657,77,56,77z"/><path fill="#9aa2e6" d="M68,77L68,77c-1.657,0-3-1.343-3-3V36c0-1.657,1.343-3,3-3l0,0c1.657,0,3,1.343,3,3v38 C71,75.657,69.657,77,68,77z"/></svg>